<svg xmlns="http://www.w3.org/2000/svg" viewBox="0 0 900 500" width="100%" height="100%" style="background-color: #0f172a; font-family: system-ui, -apple-system, sans-serif; border-radius: 12px; box-shadow: 0 4px 20px rgba(0,0,0,0.3);">
  <line x1="60" y1="440.0" x2="840" y2="440.0" stroke="#334155" stroke-dasharray="4,4" stroke-width="1" />
  <text x="50" y="444.0" fill="#94a3b8" font-size="11" text-anchor="end">0</text>
  <line x1="60" y1="360.0" x2="840" y2="360.0" stroke="#334155" stroke-dasharray="4,4" stroke-width="1" />
  <text x="50" y="364.0" fill="#94a3b8" font-size="11" text-anchor="end">100</text>
  <line x1="60" y1="280.0" x2="840" y2="280.0" stroke="#334155" stroke-dasharray="4,4" stroke-width="1" />
  <text x="50" y="284.0" fill="#94a3b8" font-size="11" text-anchor="end">200</text>
  <line x1="60" y1="200.0" x2="840" y2="200.0" stroke="#334155" stroke-dasharray="4,4" stroke-width="1" />
  <text x="50" y="204.0" fill="#94a3b8" font-size="11" text-anchor="end">300</text>
  <line x1="60" y1="120.0" x2="840" y2="120.0" stroke="#334155" stroke-dasharray="4,4" stroke-width="1" />
  <text x="50" y="124.0" fill="#94a3b8" font-size="11" text-anchor="end">400</text>
  <line x1="60" y1="40.0" x2="840" y2="40.0" stroke="#334155" stroke-dasharray="4,4" stroke-width="1" />
  <text x="50" y="44.0" fill="#94a3b8" font-size="11" text-anchor="end">500</text>
  <line x1="840" y1="440.0" x2="845" y2="440.0" stroke="#64748b" stroke-width="1" />
  <text x="850" y="444.0" fill="#94a3b8" font-size="11" text-anchor="start">-80</text>
  <line x1="840" y1="340.0" x2="845" y2="340.0" stroke="#64748b" stroke-width="1" />
  <text x="850" y="344.0" fill="#94a3b8" font-size="11" text-anchor="start">-40</text>
  <line x1="840" y1="240.0" x2="845" y2="240.0" stroke="#64748b" stroke-width="1" />
  <text x="850" y="244.0" fill="#94a3b8" font-size="11" text-anchor="start">0</text>
  <line x1="840" y1="140.0" x2="845" y2="140.0" stroke="#64748b" stroke-width="1" />
  <text x="850" y="144.0" fill="#94a3b8" font-size="11" text-anchor="start">40</text>
  <line x1="840" y1="40.0" x2="845" y2="40.0" stroke="#64748b" stroke-width="1" />
  <text x="850" y="44.0" fill="#94a3b8" font-size="11" text-anchor="start">80</text>
  <rect x="62.0" y="40" width="22.896551724137932" height="400" fill="transparent" style="cursor: pointer;">
    <title>Semana 2025-12-29 a 2026-01-04
Carga Total: 0 TL
- Ride: 0
- Run: 0
- Swim: 0
- Strength: 0
- CTL: 14.7 | TSB: 4.2</title>
  </rect>
  <rect x="88.89655172413794" y="40" width="22.896551724137932" height="400" fill="transparent" style="cursor: pointer;">
    <title>Semana 2026-01-05 a 2026-01-11
Carga Total: 312 TL
- Ride: 182
- Run: 73
- Swim: 24
- Strength: 33
- CTL: 18.5 | TSB: -12.3</title>
  </rect>
  <rect x="88.89655172413794" y="294.4" width="22.896551724137932" height="145.6" fill="#3b82f6" rx="2" style="transition: opacity 0.2s;" />
  <rect x="88.89655172413794" y="235.99999999999997" width="22.896551724137932" height="58.4" fill="#f97316" rx="2" style="transition: opacity 0.2s;" />
  <rect x="88.89655172413794" y="216.8" width="22.896551724137932" height="19.2" fill="#06b6d4" rx="2" style="transition: opacity 0.2s;" />
  <rect x="88.89655172413794" y="190.39999999999998" width="22.896551724137932" height="26.400000000000002" fill="#a855f7" rx="2" style="transition: opacity 0.2s;" />
  <rect x="115.79310344827587" y="40" width="22.896551724137932" height="400" fill="transparent" style="cursor: pointer;">
    <title>Semana 2026-01-12 a 2026-01-18
Carga Total: 211 TL
- Ride: 198
- Run: 0
- Swim: 13
- Strength: 0
- CTL: 20.4 | TSB: -12.4</title>
  </rect>
  <rect x="115.79310344827587" y="281.6" width="22.896551724137932" height="158.4" fill="#3b82f6" rx="2" style="transition: opacity 0.2s;" />
  <rect x="115.79310344827587" y="271.20000000000005" width="22.896551724137932" height="10.4" fill="#06b6d4" rx="2" style="transition: opacity 0.2s;" />
  <rect x="142.68965517241378" y="40" width="22.896551724137932" height="400" fill="transparent" style="cursor: pointer;">
    <title>Semana 2026-01-19 a 2026-01-25
Carga Total: 350 TL
- Ride: 247
- Run: 59
- Swim: 34
- Strength: 10
- CTL: 24.8 | TSB: -22.4</title>
  </rect>
  <rect x="142.68965517241378" y="242.4" width="22.896551724137932" height="197.6" fill="#3b82f6" rx="2" style="transition: opacity 0.2s;" />
  <rect x="142.68965517241378" y="195.20000000000002" width="22.896551724137932" height="47.199999999999996" fill="#f97316" rx="2" style="transition: opacity 0.2s;" />
  <rect x="142.68965517241378" y="168.0" width="22.896551724137932" height="27.200000000000003" fill="#06b6d4" rx="2" style="transition: opacity 0.2s;" />
  <rect x="142.68965517241378" y="160.0" width="22.896551724137932" height="8.0" fill="#a855f7" rx="2" style="transition: opacity 0.2s;" />
  <rect x="169.58620689655174" y="40" width="22.896551724137932" height="400" fill="transparent" style="cursor: pointer;">
    <title>Semana 2026-01-26 a 2026-02-01
Carga Total: 379 TL
- Ride: 229
- Run: 77
- Swim: 56
- Strength: 17
- CTL: 29.0 | TSB: -22.1</title>
  </rect>
  <rect x="169.58620689655174" y="256.79999999999995" width="22.896551724137932" height="183.20000000000002" fill="#3b82f6" rx="2" style="transition: opacity 0.2s;" />
  <rect x="169.58620689655174" y="195.19999999999996" width="22.896551724137932" height="61.6" fill="#f97316" rx="2" style="transition: opacity 0.2s;" />
  <rect x="169.58620689655174" y="150.4" width="22.896551724137932" height="44.800000000000004" fill="#06b6d4" rx="2" style="transition: opacity 0.2s;" />
  <rect x="169.58620689655174" y="136.80000000000004" width="22.896551724137932" height="13.600000000000001" fill="#a855f7" rx="2" style="transition: opacity 0.2s;" />
  <rect x="196.48275862068965" y="40" width="22.896551724137932" height="400" fill="transparent" style="cursor: pointer;">
    <title>Semana 2026-02-02 a 2026-02-08
Carga Total: 320 TL
- Ride: 97
- Run: 160
- Swim: 41
- Strength: 22
- CTL: 33.5 | TSB: -26.3</title>
  </rect>
  <rect x="196.48275862068965" y="362.4" width="22.896551724137932" height="77.60000000000001" fill="#3b82f6" rx="2" style="transition: opacity 0.2s;" />
  <rect x="196.48275862068965" y="234.39999999999998" width="22.896551724137932" height="128.0" fill="#f97316" rx="2" style="transition: opacity 0.2s;" />
  <rect x="196.48275862068965" y="201.6" width="22.896551724137932" height="32.800000000000004" fill="#06b6d4" rx="2" style="transition: opacity 0.2s;" />
  <rect x="196.48275862068965" y="184.00000000000003" width="22.896551724137932" height="17.599999999999998" fill="#a855f7" rx="2" style="transition: opacity 0.2s;" />
  <rect x="223.3793103448276" y="40" width="22.896551724137932" height="400" fill="transparent" style="cursor: pointer;">
    <title>Semana 2026-02-09 a 2026-02-15
Carga Total: 273 TL
- Ride: 175
- Run: 64
- Swim: 34
- Strength: 0
- CTL: 34.6 | TSB: -11.8</title>
  </rect>
  <rect x="223.3793103448276" y="300.0" width="22.896551724137932" height="140.0" fill="#3b82f6" rx="2" style="transition: opacity 0.2s;" />
  <rect x="223.3793103448276" y="248.8" width="22.896551724137932" height="51.2" fill="#f97316" rx="2" style="transition: opacity 0.2s;" />
  <rect x="223.3793103448276" y="221.60000000000002" width="22.896551724137932" height="27.200000000000003" fill="#06b6d4" rx="2" style="transition: opacity 0.2s;" />
  <rect x="250.27586206896552" y="40" width="22.896551724137932" height="400" fill="transparent" style="cursor: pointer;">
    <title>Semana 2026-02-16 a 2026-02-22
Carga Total: 256 TL
- Ride: 75
- Run: 122
- Swim: 42
- Strength: 0
- CTL: 34.9 | TSB: -4.3</title>
  </rect>
  <rect x="250.27586206896552" y="380.0" width="22.896551724137932" height="60.0" fill="#3b82f6" rx="2" style="transition: opacity 0.2s;" />
  <rect x="250.27586206896552" y="282.4" width="22.896551724137932" height="97.6" fill="#f97316" rx="2" style="transition: opacity 0.2s;" />
  <rect x="250.27586206896552" y="248.79999999999998" width="22.896551724137932" height="33.6" fill="#06b6d4" rx="2" style="transition: opacity 0.2s;" />
  <rect x="250.27586206896552" y="235.20000000000002" width="22.896551724137932" height="13.600000000000001" fill="#6b7280" rx="2" style="transition: opacity 0.2s;" />
  <rect x="277.1724137931035" y="40" width="22.896551724137932" height="400" fill="transparent" style="cursor: pointer;">
    <title>Semana 2026-02-23 a 2026-03-01
Carga Total: 133 TL
- Ride: 10
- Run: 68
- Swim: 32
- Strength: 23
- CTL: 31.8 | TSB: 8.8</title>
  </rect>
  <rect x="277.1724137931035" y="432.0" width="22.896551724137932" height="8.0" fill="#3b82f6" rx="2" style="transition: opacity 0.2s;" />
  <rect x="277.1724137931035" y="377.6" width="22.896551724137932" height="54.400000000000006" fill="#f97316" rx="2" style="transition: opacity 0.2s;" />
  <rect x="277.1724137931035" y="352.0" width="22.896551724137932" height="25.6" fill="#06b6d4" rx="2" style="transition: opacity 0.2s;" />
  <rect x="277.1724137931035" y="333.6" width="22.896551724137932" height="18.4" fill="#a855f7" rx="2" style="transition: opacity 0.2s;" />
  <rect x="304.0689655172414" y="40" width="22.896551724137932" height="400" fill="transparent" style="cursor: pointer;">
    <title>Semana 2026-03-02 a 2026-03-08
Carga Total: 152 TL
- Ride: 51
- Run: 57
- Swim: 44
- Strength: 0
- CTL: 30.2 | TSB: 10.2</title>
  </rect>
  <rect x="304.0689655172414" y="399.2" width="22.896551724137932" height="40.8" fill="#3b82f6" rx="2" style="transition: opacity 0.2s;" />
  <rect x="304.0689655172414" y="353.59999999999997" width="22.896551724137932" height="45.6" fill="#f97316" rx="2" style="transition: opacity 0.2s;" />
  <rect x="304.0689655172414" y="318.40000000000003" width="22.896551724137932" height="35.199999999999996" fill="#06b6d4" rx="2" style="transition: opacity 0.2s;" />
  <rect x="330.9655172413793" y="40" width="22.896551724137932" height="400" fill="transparent" style="cursor: pointer;">
    <title>Semana 2026-03-09 a 2026-03-15
Carga Total: 190 TL
- Ride: 23
- Run: 59
- Swim: 66
- Strength: 42
- CTL: 28.7 | TSB: 7.0</title>
  </rect>
  <rect x="330.9655172413793" y="421.6" width="22.896551724137932" height="18.4" fill="#3b82f6" rx="2" style="transition: opacity 0.2s;" />
  <rect x="330.9655172413793" y="374.40000000000003" width="22.896551724137932" height="47.199999999999996" fill="#f97316" rx="2" style="transition: opacity 0.2s;" />
  <rect x="330.9655172413793" y="321.59999999999997" width="22.896551724137932" height="52.800000000000004" fill="#06b6d4" rx="2" style="transition: opacity 0.2s;" />
  <rect x="330.9655172413793" y="288.0" width="22.896551724137932" height="33.6" fill="#a855f7" rx="2" style="transition: opacity 0.2s;" />
  <rect x="357.86206896551727" y="40" width="22.896551724137932" height="400" fill="transparent" style="cursor: pointer;">
    <title>Semana 2026-03-16 a 2026-03-22
Carga Total: 247 TL
- Ride: 42
- Run: 88
- Swim: 56
- Strength: 33
- CTL: 28.4 | TSB: -1.2</title>
  </rect>
  <rect x="357.86206896551727" y="406.4" width="22.896551724137932" height="33.6" fill="#3b82f6" rx="2" style="transition: opacity 0.2s;" />
  <rect x="357.86206896551727" y="336.0" width="22.896551724137932" height="70.39999999999999" fill="#f97316" rx="2" style="transition: opacity 0.2s;" />
  <rect x="357.86206896551727" y="291.2" width="22.896551724137932" height="44.800000000000004" fill="#06b6d4" rx="2" style="transition: opacity 0.2s;" />
  <rect x="357.86206896551727" y="264.8" width="22.896551724137932" height="26.400000000000002" fill="#a855f7" rx="2" style="transition: opacity 0.2s;" />
  <rect x="357.86206896551727" y="242.4" width="22.896551724137932" height="22.400000000000002" fill="#6b7280" rx="2" style="transition: opacity 0.2s;" />
  <rect x="384.7586206896552" y="40" width="22.896551724137932" height="400" fill="transparent" style="cursor: pointer;">
    <title>Semana 2026-03-23 a 2026-03-29
Carga Total: 268 TL
- Ride: 163
- Run: 50
- Swim: 22
- Strength: 33
- CTL: 29.3 | TSB: -7.8</title>
  </rect>
  <rect x="384.7586206896552" y="309.6" width="22.896551724137932" height="130.4" fill="#3b82f6" rx="2" style="transition: opacity 0.2s;" />
  <rect x="384.7586206896552" y="269.6" width="22.896551724137932" height="40.0" fill="#f97316" rx="2" style="transition: opacity 0.2s;" />
  <rect x="384.7586206896552" y="252.00000000000003" width="22.896551724137932" height="17.599999999999998" fill="#06b6d4" rx="2" style="transition: opacity 0.2s;" />
  <rect x="384.7586206896552" y="225.6" width="22.896551724137932" height="26.400000000000002" fill="#a855f7" rx="2" style="transition: opacity 0.2s;" />
  <rect x="411.65517241379314" y="40" width="22.896551724137932" height="400" fill="transparent" style="cursor: pointer;">
    <title>Semana 2026-03-30 a 2026-04-05
Carga Total: 332 TL
- Ride: 110
- Run: 144
- Swim: 47
- Strength: 31
- CTL: 31.5 | TSB: -15.0</title>
  </rect>
  <rect x="411.65517241379314" y="352.0" width="22.896551724137932" height="88.0" fill="#3b82f6" rx="2" style="transition: opacity 0.2s;" />
  <rect x="411.65517241379314" y="236.8" width="22.896551724137932" height="115.19999999999999" fill="#f97316" rx="2" style="transition: opacity 0.2s;" />
  <rect x="411.65517241379314" y="199.20000000000002" width="22.896551724137932" height="37.6" fill="#06b6d4" rx="2" style="transition: opacity 0.2s;" />
  <rect x="411.65517241379314" y="174.4" width="22.896551724137932" height="24.8" fill="#a855f7" rx="2" style="transition: opacity 0.2s;" />
  <rect x="438.55172413793105" y="40" width="22.896551724137932" height="400" fill="transparent" style="cursor: pointer;">
    <title>Semana 2026-04-06 a 2026-04-12
Carga Total: 367 TL
- Ride: 126
- Run: 180
- Swim: 47
- Strength: 14
- CTL: 34.7 | TSB: -21.6</title>
  </rect>
  <rect x="438.55172413793105" y="339.2" width="22.896551724137932" height="100.8" fill="#3b82f6" rx="2" style="transition: opacity 0.2s;" />
  <rect x="438.55172413793105" y="195.2" width="22.896551724137932" height="144.0" fill="#f97316" rx="2" style="transition: opacity 0.2s;" />
  <rect x="438.55172413793105" y="157.60000000000002" width="22.896551724137932" height="37.6" fill="#06b6d4" rx="2" style="transition: opacity 0.2s;" />
  <rect x="438.55172413793105" y="146.40000000000003" width="22.896551724137932" height="11.200000000000001" fill="#a855f7" rx="2" style="transition: opacity 0.2s;" />
  <rect x="465.448275862069" y="40" width="22.896551724137932" height="400" fill="transparent" style="cursor: pointer;">
    <title>Semana 2026-04-13 a 2026-04-19
Carga Total: 441 TL
- Ride: 112
- Run: 232
- Swim: 58
- Strength: 39
- CTL: 38.3 | TSB: -25.4</title>
  </rect>
  <rect x="465.448275862069" y="350.4" width="22.896551724137932" height="89.60000000000001" fill="#3b82f6" rx="2" style="transition: opacity 0.2s;" />
  <rect x="465.448275862069" y="164.79999999999995" width="22.896551724137932" height="185.60000000000002" fill="#f97316" rx="2" style="transition: opacity 0.2s;" />
  <rect x="465.448275862069" y="118.4" width="22.896551724137932" height="46.400000000000006" fill="#06b6d4" rx="2" style="transition: opacity 0.2s;" />
  <rect x="465.448275862069" y="87.19999999999997" width="22.896551724137932" height="31.2" fill="#a855f7" rx="2" style="transition: opacity 0.2s;" />
  <rect x="492.3448275862069" y="40" width="22.896551724137932" height="400" fill="transparent" style="cursor: pointer;">
    <title>Semana 2026-04-20 a 2026-04-26
Carga Total: 286 TL
- Ride: 0
- Run: 201
- Swim: 46
- Strength: 39
- CTL: 40.6 | TSB: -21.7</title>
  </rect>
  <rect x="492.3448275862069" y="279.2" width="22.896551724137932" height="160.8" fill="#f97316" rx="2" style="transition: opacity 0.2s;" />
  <rect x="492.3448275862069" y="242.39999999999998" width="22.896551724137932" height="36.8" fill="#06b6d4" rx="2" style="transition: opacity 0.2s;" />
  <rect x="492.3448275862069" y="211.20000000000002" width="22.896551724137932" height="31.2" fill="#a855f7" rx="2" style="transition: opacity 0.2s;" />
  <rect x="519.2413793103449" y="40" width="22.896551724137932" height="400" fill="transparent" style="cursor: pointer;">
    <title>Semana 2026-04-27 a 2026-05-03
Carga Total: 375 TL
- Ride: 59
- Run: 237
- Swim: 41
- Strength: 38
- CTL: 41.8 | TSB: -15.5</title>
  </rect>
  <rect x="519.2413793103449" y="392.8" width="22.896551724137932" height="47.199999999999996" fill="#3b82f6" rx="2" style="transition: opacity 0.2s;" />
  <rect x="519.2413793103449" y="203.20000000000002" width="22.896551724137932" height="189.6" fill="#f97316" rx="2" style="transition: opacity 0.2s;" />
  <rect x="519.2413793103449" y="170.4" width="22.896551724137932" height="32.800000000000004" fill="#06b6d4" rx="2" style="transition: opacity 0.2s;" />
  <rect x="519.2413793103449" y="139.99999999999997" width="22.896551724137932" height="30.4" fill="#a855f7" rx="2" style="transition: opacity 0.2s;" />
  <rect x="546.1379310344828" y="40" width="22.896551724137932" height="400" fill="transparent" style="cursor: pointer;">
    <title>Semana 2026-05-04 a 2026-05-10
Carga Total: 402 TL
- Ride: 75
- Run: 240
- Swim: 47
- Strength: 40
- CTL: 43.3 | TSB: -12.1</title>
  </rect>
  <rect x="546.1379310344828" y="380.0" width="22.896551724137932" height="60.0" fill="#3b82f6" rx="2" style="transition: opacity 0.2s;" />
  <rect x="546.1379310344828" y="188.0" width="22.896551724137932" height="192.0" fill="#f97316" rx="2" style="transition: opacity 0.2s;" />
  <rect x="546.1379310344828" y="150.4" width="22.896551724137932" height="37.6" fill="#06b6d4" rx="2" style="transition: opacity 0.2s;" />
  <rect x="546.1379310344828" y="118.40000000000003" width="22.896551724137932" height="32.0" fill="#a855f7" rx="2" style="transition: opacity 0.2s;" />
  <rect x="573.0344827586207" y="40" width="22.896551724137932" height="400" fill="transparent" style="cursor: pointer;">
    <title>Semana 2026-05-11 a 2026-05-17
Carga Total: 479 TL
- Ride: 126
- Run: 282
- Swim: 59
- Strength: 12
- CTL: 46.9 | TSB: -16.5</title>
  </rect>
  <rect x="573.0344827586207" y="339.2" width="22.896551724137932" height="100.8" fill="#3b82f6" rx="2" style="transition: opacity 0.2s;" />
  <rect x="573.0344827586207" y="113.60000000000002" width="22.896551724137932" height="225.59999999999997" fill="#f97316" rx="2" style="transition: opacity 0.2s;" />
  <rect x="573.0344827586207" y="66.40000000000003" width="22.896551724137932" height="47.199999999999996" fill="#06b6d4" rx="2" style="transition: opacity 0.2s;" />
  <rect x="573.0344827586207" y="56.799999999999976" width="22.896551724137932" height="9.6" fill="#a855f7" rx="2" style="transition: opacity 0.2s;" />
  <rect x="599.9310344827586" y="40" width="22.896551724137932" height="400" fill="transparent" style="cursor: pointer;">
    <title>Semana 2026-05-18 a 2026-05-24
Carga Total: 292 TL
- Ride: 0
- Run: 236
- Swim: 56
- Strength: 0
- CTL: 46.2 | TSB: -5.7</title>
  </rect>
  <rect x="599.9310344827586" y="251.20000000000002" width="22.896551724137932" height="188.79999999999998" fill="#f97316" rx="2" style="transition: opacity 0.2s;" />
  <rect x="599.9310344827586" y="206.4" width="22.896551724137932" height="44.800000000000004" fill="#06b6d4" rx="2" style="transition: opacity 0.2s;" />
  <rect x="626.8275862068966" y="40" width="22.896551724137932" height="400" fill="transparent" style="cursor: pointer;">
    <title>Semana 2026-05-25 a 2026-05-31
Carga Total: 341 TL
- Ride: 46
- Run: 235
- Swim: 60
- Strength: 0
- CTL: 46.6 | TSB: -4.5</title>
  </rect>
  <rect x="626.8275862068966" y="403.2" width="22.896551724137932" height="36.8" fill="#3b82f6" rx="2" style="transition: opacity 0.2s;" />
  <rect x="626.8275862068966" y="215.2" width="22.896551724137932" height="188.0" fill="#f97316" rx="2" style="transition: opacity 0.2s;" />
  <rect x="626.8275862068966" y="167.2" width="22.896551724137932" height="48.0" fill="#06b6d4" rx="2" style="transition: opacity 0.2s;" />
  <rect x="653.7241379310345" y="40" width="22.896551724137932" height="400" fill="transparent" style="cursor: pointer;">
    <title>Semana 2026-06-01 a 2026-06-07
Carga Total: 219 TL
- Ride: 0
- Run: 157
- Swim: 21
- Strength: 41
- CTL: 43.3 | TSB: 6.7</title>
  </rect>
  <rect x="653.7241379310345" y="314.4" width="22.896551724137932" height="125.6" fill="#f97316" rx="2" style="transition: opacity 0.2s;" />
  <rect x="653.7241379310345" y="297.59999999999997" width="22.896551724137932" height="16.8" fill="#06b6d4" rx="2" style="transition: opacity 0.2s;" />
  <rect x="653.7241379310345" y="264.8" width="22.896551724137932" height="32.800000000000004" fill="#a855f7" rx="2" style="transition: opacity 0.2s;" />
  <rect x="680.6206896551724" y="40" width="22.896551724137932" height="400" fill="transparent" style="cursor: pointer;">
    <title>Semana 2026-06-08 a 2026-06-14
Carga Total: 267 TL
- Ride: 52
- Run: 159
- Swim: 47
- Strength: 0
- CTL: 42.5 | TSB: 4.7</title>
  </rect>
  <rect x="680.6206896551724" y="398.4" width="22.896551724137932" height="41.6" fill="#3b82f6" rx="2" style="transition: opacity 0.2s;" />
  <rect x="680.6206896551724" y="271.2" width="22.896551724137932" height="127.2" fill="#f97316" rx="2" style="transition: opacity 0.2s;" />
  <rect x="680.6206896551724" y="233.60000000000005" width="22.896551724137932" height="37.6" fill="#06b6d4" rx="2" style="transition: opacity 0.2s;" />
  <rect x="680.6206896551724" y="226.4" width="22.896551724137932" height="7.199999999999999" fill="#6b7280" rx="2" style="transition: opacity 0.2s;" />
  <rect x="707.5172413793103" y="40" width="22.896551724137932" height="400" fill="transparent" style="cursor: pointer;">
    <title>Semana 2026-06-15 a 2026-06-21
Carga Total: 402 TL
- Ride: 160
- Run: 181
- Swim: 43
- Strength: 18
- CTL: 44.5 | TSB: -7.4</title>
  </rect>
  <rect x="707.5172413793103" y="312.0" width="22.896551724137932" height="128.0" fill="#3b82f6" rx="2" style="transition: opacity 0.2s;" />
  <rect x="707.5172413793103" y="167.20000000000002" width="22.896551724137932" height="144.79999999999998" fill="#f97316" rx="2" style="transition: opacity 0.2s;" />
  <rect x="707.5172413793103" y="132.79999999999998" width="22.896551724137932" height="34.4" fill="#06b6d4" rx="2" style="transition: opacity 0.2s;" />
  <rect x="707.5172413793103" y="118.4" width="22.896551724137932" height="14.399999999999999" fill="#a855f7" rx="2" style="transition: opacity 0.2s;" />
  <rect x="734.4137931034483" y="40" width="22.896551724137932" height="400" fill="transparent" style="cursor: pointer;">
    <title>Semana 2026-06-22 a 2026-06-28
Carga Total: 248 TL
- Ride: 0
- Run: 176
- Swim: 51
- Strength: 21
- CTL: 42.6 | TSB: 2.3</title>
  </rect>
  <rect x="734.4137931034483" y="299.20000000000005" width="22.896551724137932" height="140.79999999999998" fill="#f97316" rx="2" style="transition: opacity 0.2s;" />
  <rect x="734.4137931034483" y="258.40000000000003" width="22.896551724137932" height="40.8" fill="#06b6d4" rx="2" style="transition: opacity 0.2s;" />
  <rect x="734.4137931034483" y="241.59999999999997" width="22.896551724137932" height="16.8" fill="#a855f7" rx="2" style="transition: opacity 0.2s;" />
  <rect x="761.3103448275863" y="40" width="22.896551724137932" height="400" fill="transparent" style="cursor: pointer;">
    <title>Semana 2026-06-29 a 2026-07-05
Carga Total: 251 TL
- Ride: 0
- Run: 179
- Swim: 43
- Strength: 29
- CTL: 41.3 | TSB: 2.7</title>
  </rect>
  <rect x="761.3103448275863" y="296.8" width="22.896551724137932" height="143.2" fill="#f97316" rx="2" style="transition: opacity 0.2s;" />
  <rect x="761.3103448275863" y="262.40000000000003" width="22.896551724137932" height="34.4" fill="#06b6d4" rx="2" style="transition: opacity 0.2s;" />
  <rect x="761.3103448275863" y="239.2" width="22.896551724137932" height="23.200000000000003" fill="#a855f7" rx="2" style="transition: opacity 0.2s;" />
  <rect x="788.2068965517242" y="40" width="22.896551724137932" height="400" fill="transparent" style="cursor: pointer;">
    <title>Semana 2026-07-06 a 2026-07-12
Carga Total: 413 TL
- Ride: 216
- Run: 164
- Swim: 24
- Strength: 9
- CTL: 43.7 | TSB: -5.6</title>
  </rect>
  <rect x="788.2068965517242" y="267.2" width="22.896551724137932" height="172.8" fill="#3b82f6" rx="2" style="transition: opacity 0.2s;" />
  <rect x="788.2068965517242" y="135.99999999999997" width="22.896551724137932" height="131.20000000000002" fill="#f97316" rx="2" style="transition: opacity 0.2s;" />
  <rect x="788.2068965517242" y="116.8" width="22.896551724137932" height="19.2" fill="#06b6d4" rx="2" style="transition: opacity 0.2s;" />
  <rect x="788.2068965517242" y="109.59999999999995" width="22.896551724137932" height="7.199999999999999" fill="#a855f7" rx="2" style="transition: opacity 0.2s;" />
  <rect x="815.1034482758621" y="40" width="22.896551724137932" height="400" fill="transparent" style="cursor: pointer;">
    <title>Semana 2026-07-13 a 2026-07-19
Carga Total: 0 TL
- Ride: 0
- Run: 0
- Swim: 0
- Strength: 0
- CTL: 48.5 | TSB: -18.0</title>
  </rect>
  <!-- TSB Line -->
  <path d="M 73.44827586206897,229.39500750000002 L 100.3448275862069,270.86811 L 127.24137931034484,270.8949225 L 154.13793103448273,296.009635 L 181.0344827586207,295.1507875 L 207.9310344827586,305.6800425 L 234.82758620689654,269.46411 L 261.7241379310345,250.8606725 L 288.62068965517244,218.09690750000001 L 315.51724137931035,214.44910499999997 L 342.41379310344826,222.53013 L 369.3103448275862,242.90761 L 396.2068965517241,259.3955125 L 423.1034482758621,277.53909250000004 L 450.0,294.0812075 L 476.89655172413796,303.40556 L 503.7931034482759,294.31093500000003 L 530.6896551724138,278.7259075 L 557.5862068965517,270.14369999999997 L 584.4827586206897,281.34033 L 611.3793103448276,254.25542749999997 L 638.2758620689656,251.184125 L 665.1724137931035,223.23490749999996 L 692.0689655172414,228.27134 L 718.9655172413793,258.4764775 L 745.8620689655172,234.224425 L 772.7586206896552,233.285485 L 799.6551724137931,253.89920249999997 L 826.551724137931,285.003475" fill="none" stroke="#f43f5e" stroke-width="2.5" stroke-dasharray="3,3" />
  <!-- ATL Line -->
  <path d="M 73.44827586206897,213.73623500000002 L 100.3448275862069,162.77914500000003 L 127.24137931034484,158.13806499999998 L 154.13793103448273,121.86591249999998 L 181.0344827586207,112.43346250000002 L 207.9310344827586,90.67763249999996 L 234.82758620689654,123.94670500000001 L 261.7241379310345,141.87644 L 288.62068965517244,182.278205 L 315.51724137931035,190.032735 L 342.41379310344826,185.63166999999999 L 369.3103448275862,166.0932975 L 396.2068965517241,147.37960000000004 L 423.1034482758621,123.68703750000003 L 450.0,99.24897499999997 L 476.89655172413796,80.83948249999997 L 503.7931034482759,84.25450000000001 L 530.6896551724138,96.83049249999999 L 557.5862068965517,101.718635 L 584.4827586206897,81.49963500000001 L 611.3793103448276,110.35243000000003 L 638.2758620689656,112.32599999999996 L 665.1724137931035,148.5526175 L 692.0689655172414,145.50030000000004 L 718.9655172413793,110.37939 L 745.8620689655172,139.35035750000003 L 772.7586206896552,143.40825 L 799.6551724137931,116.741085 L 826.551724137931,73.83707500000003" fill="none" stroke="#ec4899" stroke-width="1.5" opacity="0.6" />
  <!-- CTL Line -->
  <path d="M 73.44827586206897,203.13124249999998 L 100.3448275862069,193.647255 L 127.24137931034484,189.0329875 L 154.13793103448273,177.87554749999998 L 181.0344827586207,167.58425 L 207.9310344827586,156.35767499999997 L 234.82758620689654,153.410815 L 261.7241379310345,152.73711249999997 L 288.62068965517244,160.3751125 L 315.51724137931035,164.48184000000003 L 342.41379310344826,168.16179999999997 L 369.3103448275862,169.00090749999998 L 396.2068965517241,166.77511250000003 L 423.1034482758621,161.22613 L 450.0,153.33018250000003 L 476.89655172413796,144.24504249999995 L 503.7931034482759,138.56543499999998 L 530.6896551724138,135.5564 L 557.5862068965517,131.86233499999997 L 584.4827586206897,122.839965 L 611.3793103448276,124.60785750000002 L 638.2758620689656,123.51012500000002 L 665.1724137931035,131.78752500000002 L 692.0689655172414,133.77164000000005 L 718.9655172413793,128.8558675 L 745.8620689655172,133.57478249999997 L 772.7586206896552,136.693735 L 799.6551724137931,130.6402875 L 826.551724137931,118.84055000000006" fill="none" stroke="#eab308" stroke-width="3" />
  <circle cx="73.44827586206897" cy="203.13124249999998" r="3" fill="#eab308" stroke="#0f172a" stroke-width="1" />
  <circle cx="100.3448275862069" cy="193.647255" r="3" fill="#eab308" stroke="#0f172a" stroke-width="1" />
  <circle cx="127.24137931034484" cy="189.0329875" r="3" fill="#eab308" stroke="#0f172a" stroke-width="1" />
  <circle cx="154.13793103448273" cy="177.87554749999998" r="3" fill="#eab308" stroke="#0f172a" stroke-width="1" />
  <circle cx="181.0344827586207" cy="167.58425" r="3" fill="#eab308" stroke="#0f172a" stroke-width="1" />
  <circle cx="207.9310344827586" cy="156.35767499999997" r="3" fill="#eab308" stroke="#0f172a" stroke-width="1" />
  <circle cx="234.82758620689654" cy="153.410815" r="3" fill="#eab308" stroke="#0f172a" stroke-width="1" />
  <circle cx="261.7241379310345" cy="152.73711249999997" r="3" fill="#eab308" stroke="#0f172a" stroke-width="1" />
  <circle cx="288.62068965517244" cy="160.3751125" r="3" fill="#eab308" stroke="#0f172a" stroke-width="1" />
  <circle cx="315.51724137931035" cy="164.48184000000003" r="3" fill="#eab308" stroke="#0f172a" stroke-width="1" />
  <circle cx="342.41379310344826" cy="168.16179999999997" r="3" fill="#eab308" stroke="#0f172a" stroke-width="1" />
  <circle cx="369.3103448275862" cy="169.00090749999998" r="3" fill="#eab308" stroke="#0f172a" stroke-width="1" />
  <circle cx="396.2068965517241" cy="166.77511250000003" r="3" fill="#eab308" stroke="#0f172a" stroke-width="1" />
  <circle cx="423.1034482758621" cy="161.22613" r="3" fill="#eab308" stroke="#0f172a" stroke-width="1" />
  <circle cx="450.0" cy="153.33018250000003" r="3" fill="#eab308" stroke="#0f172a" stroke-width="1" />
  <circle cx="476.89655172413796" cy="144.24504249999995" r="3" fill="#eab308" stroke="#0f172a" stroke-width="1" />
  <circle cx="503.7931034482759" cy="138.56543499999998" r="3" fill="#eab308" stroke="#0f172a" stroke-width="1" />
  <circle cx="530.6896551724138" cy="135.5564" r="3" fill="#eab308" stroke="#0f172a" stroke-width="1" />
  <circle cx="557.5862068965517" cy="131.86233499999997" r="3" fill="#eab308" stroke="#0f172a" stroke-width="1" />
  <circle cx="584.4827586206897" cy="122.839965" r="3" fill="#eab308" stroke="#0f172a" stroke-width="1" />
  <circle cx="611.3793103448276" cy="124.60785750000002" r="3" fill="#eab308" stroke="#0f172a" stroke-width="1" />
  <circle cx="638.2758620689656" cy="123.51012500000002" r="3" fill="#eab308" stroke="#0f172a" stroke-width="1" />
  <circle cx="665.1724137931035" cy="131.78752500000002" r="3" fill="#eab308" stroke="#0f172a" stroke-width="1" />
  <circle cx="692.0689655172414" cy="133.77164000000005" r="3" fill="#eab308" stroke="#0f172a" stroke-width="1" />
  <circle cx="718.9655172413793" cy="128.8558675" r="3" fill="#eab308" stroke="#0f172a" stroke-width="1" />
  <circle cx="745.8620689655172" cy="133.57478249999997" r="3" fill="#eab308" stroke="#0f172a" stroke-width="1" />
  <circle cx="772.7586206896552" cy="136.693735" r="3" fill="#eab308" stroke="#0f172a" stroke-width="1" />
  <circle cx="799.6551724137931" cy="130.6402875" r="3" fill="#eab308" stroke="#0f172a" stroke-width="1" />
  <circle cx="826.551724137931" cy="118.84055000000006" r="3" fill="#eab308" stroke="#0f172a" stroke-width="1" />
  <text x="73.44827586206897" y="460" fill="#64748b" font-size="10" text-anchor="middle" transform="rotate(30, 73.44827586206897, 460)">29/Dec</text>
  <text x="154.13793103448273" y="460" fill="#64748b" font-size="10" text-anchor="middle" transform="rotate(30, 154.13793103448273, 460)">19/Jan</text>
  <text x="234.82758620689654" y="460" fill="#64748b" font-size="10" text-anchor="middle" transform="rotate(30, 234.82758620689654, 460)">09/Feb</text>
  <text x="315.51724137931035" y="460" fill="#64748b" font-size="10" text-anchor="middle" transform="rotate(30, 315.51724137931035, 460)">02/Mar</text>
  <text x="396.2068965517241" y="460" fill="#64748b" font-size="10" text-anchor="middle" transform="rotate(30, 396.2068965517241, 460)">23/Mar</text>
  <text x="476.89655172413796" y="460" fill="#64748b" font-size="10" text-anchor="middle" transform="rotate(30, 476.89655172413796, 460)">13/Apr</text>
  <text x="557.5862068965517" y="460" fill="#64748b" font-size="10" text-anchor="middle" transform="rotate(30, 557.5862068965517, 460)">04/May</text>
  <text x="638.2758620689656" y="460" fill="#64748b" font-size="10" text-anchor="middle" transform="rotate(30, 638.2758620689656, 460)">25/May</text>
  <text x="718.9655172413793" y="460" fill="#64748b" font-size="10" text-anchor="middle" transform="rotate(30, 718.9655172413793, 460)">15/Jun</text>
  <text x="799.6551724137931" y="460" fill="#64748b" font-size="10" text-anchor="middle" transform="rotate(30, 799.6551724137931, 460)">06/Jul</text>
  <text x="826.551724137931" y="460" fill="#64748b" font-size="10" text-anchor="middle" transform="rotate(30, 826.551724137931, 460)">13/Jul</text>
  <!-- Legend -->
  <rect x="60" y="475" width="12" height="12" fill="#3b82f6" rx="2" />
  <text x="76" y="485" fill="#94a3b8" font-size="11">Ciclismo</text>
  <rect x="150" y="475" width="12" height="12" fill="#f97316" rx="2" />
  <text x="166" y="485" fill="#94a3b8" font-size="11">Corrida</text>
  <rect x="240" y="475" width="12" height="12" fill="#06b6d4" rx="2" />
  <text x="256" y="485" fill="#94a3b8" font-size="11">Natação</text>
  <rect x="330" y="475" width="12" height="12" fill="#a855f7" rx="2" />
  <text x="346" y="485" fill="#94a3b8" font-size="11">Força</text>
  <line x1="420" y1="481" x2="445" y2="481" stroke="#eab308" stroke-width="3" />
  <text x="450" y="485" fill="#94a3b8" font-size="11">CTL (Fitness)</text>
  <line x1="550" y1="481" x2="575" y2="481" stroke="#f43f5e" stroke-width="2" stroke-dasharray="3,3" />
  <text x="580" y="485" fill="#94a3b8" font-size="11">TSB (Forma)</text>
</svg>